<?xml version="1.0" encoding="UTF-8"?>
<svg id="Layer_1" xmlns="http://www.w3.org/2000/svg" version="1.1" xmlns:xlink="http://www.w3.org/1999/xlink" viewBox="0 0 1024 1024">
  <!-- Generator: Adobe Illustrator 29.4.0, SVG Export Plug-In . SVG Version: 2.1.0 Build 152)  -->
  <defs>
    <style>
      .st0 {
        fill: #00a8de;
      }

      .st1 {
        fill: #a1c747;
      }

      .st2 {
        fill: #fff;
        filter: url(#drop-shadow-1);
      }

      .st3 {
        fill: #ea0e88;
      }

      .st4 {
        fill: #f5b721;
      }
    </style>
    <filter id="drop-shadow-1" x="0" y="0" width="1023.89" height="1023.89" filterUnits="userSpaceOnUse">
      <feOffset dx="0" dy="0"/>
      <feGaussianBlur result="blur" stdDeviation="34.97"/>
      <feFlood flood-color="#000" flood-opacity=".75"/>
      <feComposite in2="blur" operator="in"/>
      <feComposite in="SourceGraphic"/>
    </filter>
  </defs>
  <rect class="st2" width="1023.89" height="1023.89"/>
  <g>
    <path class="st3" d="M351.65,784.21c4.97,29.86,32.17,52.2,64.02,49.43,31.27-2.72,54.18-30.94,54.18-62.32,0-45.31,0-128.07,0-172.26,0-16.39-13.29-29.66-29.68-29.66h-172.2c-31.38,0-59.64,22.92-62.36,54.18-2.83,32.57,20.59,60.28,51.47,64.33,4.04.53,6.43,4.26,5.28,8.17-7.34,24.99-22.19,101.34,78.63,80.55,5.06-1.04,9.81,2.49,10.66,7.59Z"/>
    <path class="st0" d="M680.24,784.21c-4.97,29.86-32.17,52.2-64.02,49.43-31.27-2.72-54.18-30.94-54.18-62.32,0-45.31,0-128.07,0-172.26,0-16.39,13.29-29.66,29.68-29.66h172.2c31.38,0,59.64,22.92,62.36,54.18,2.83,32.57-20.59,60.28-51.47,64.33-4.04.53-6.43,4.26-5.28,8.17,7.34,24.99,22.19,101.34-78.63,80.55-5.06-1.04-9.81,2.49-10.66,7.59Z"/>
    <path class="st4" d="M351.65,271.71c4.97-29.86,32.17-52.2,64.02-49.43,31.27,2.72,54.18,30.94,54.18,62.32,0,45.31,0,128.07,0,172.26,0,16.39-13.29,29.66-29.68,29.66h-172.2c-31.38,0-59.64-22.92-62.36-54.18-2.83-32.57,20.59-60.28,51.47-64.33,4.04-.53,6.43-4.26,5.28-8.17-7.34-24.99-22.19-101.34,78.63-80.55,5.06,1.04,9.81-2.49,10.66-7.59Z"/>
    <path class="st1" d="M680.24,271.71c-4.97-29.86-32.17-52.2-64.02-49.43s-54.18,30.94-54.18,62.32c0,45.31,0,128.07,0,172.26,0,16.39,13.29,29.66,29.68,29.66h172.2c31.38,0,59.64-22.92,62.36-54.18,2.83-32.57-20.59-60.28-51.47-64.33-4.04-.53-6.43-4.26-5.28-8.17,7.34-24.99,22.19-101.34-78.63-80.55-5.06,1.04-9.81-2.49-10.66-7.59Z"/>
  </g>
</svg>