<svg viewBox="0 0 620 210" xmlns="http://www.w3.org/2000/svg" font-family="sans-serif">
  <rect width="620" height="210" fill="#0B0B0C"/>

  <text x="10" y="18" fill="#A59EAE" font-size="11">기본(커스텀 안 함) — 이중 레이어 유지</text>
  <rect x="10" y="26" width="190" height="160" rx="14" fill="#FFFFFF"/>
  <text x="26" y="52" fill="#1A1A1A" font-size="12" font-weight="700">하나님의 손길 | 001</text>
  <rect x="26" y="64" width="158" height="106" rx="8" fill="#DDEBD8"/>
  <text x="38" y="86" fill="#333333" font-size="10">39 예수께서 나가사</text>
  <text x="38" y="100" fill="#333333" font-size="10">습관을 따라 감람 산에</text>
  <text x="38" y="114" fill="#333333" font-size="10">가시매…</text>

  <text x="220" y="18" fill="#A59EAE" font-size="11">배경색 선택 시 — 제목은 연한 동일 계열</text>
  <rect x="220" y="26" width="190" height="160" rx="14" fill="#FBE0C4"/>
  <text x="236" y="52" fill="#1A1A1A" font-size="12" font-weight="700">하나님의 손길 | 001</text>
  <rect x="236" y="64" width="158" height="106" rx="8" fill="#F2A65A"/>
  <text x="248" y="86" fill="#3A2410" font-size="10">39 예수께서 나가사</text>
  <text x="248" y="100" fill="#3A2410" font-size="10">습관을 따라 감람 산에</text>
  <text x="248" y="114" fill="#3A2410" font-size="10">가시매…</text>

  <text x="430" y="18" fill="#A59EAE" font-size="11">사진 배경 선택 시 — 스크림 오버레이</text>
  <rect x="430" y="26" width="190" height="160" rx="14" fill="#85B7EB"/>
  <text x="446" y="52" fill="#FFFFFF" font-size="12" font-weight="700">하나님의 손길 | 001</text>
  <rect x="446" y="64" width="158" height="106" rx="8" fill="#000000" opacity="0.38"/>
  <text x="458" y="86" fill="#FFFFFF" font-size="10">39 예수께서 나가사</text>
  <text x="458" y="100" fill="#FFFFFF" font-size="10">습관을 따라 감람 산에</text>
  <text x="458" y="114" fill="#FFFFFF" font-size="10">가시매…</text>
</svg>
