<svg viewBox="0 0 220 300" xmlns="http://www.w3.org/2000/svg" font-family="sans-serif">
  <rect width="220" height="300" rx="18" fill="#17171A"/>
  <path d="M18 20 l-5 5 l5 5" stroke="#FFFFFF" stroke-width="2" fill="none" stroke-linecap="round" stroke-linejoin="round"/>
  <text x="110" y="27" fill="#7A7A7E" font-size="11" text-anchor="middle">초기화</text>
  <text x="200" y="27" fill="#FFFFFF" font-size="11" font-weight="700" text-anchor="end">저장</text>

  <rect x="16" y="40" width="188" height="70" rx="10" fill="#DDEBD8"/>
  <text x="110" y="72" fill="#1A1A1A" font-size="11" font-weight="700" text-anchor="middle">또 비유로 말씀하시되</text>
  <text x="110" y="96" fill="#5A5A5A" font-size="9" text-anchor="middle">마태복음 13:33</text>

  <g>
    <circle cx="80" cy="140" r="14" fill="#2C2C2E"/>
    <text x="80" y="145" fill="#FFFFFF" font-size="12" text-anchor="middle">≡</text>
    <circle cx="110" cy="140" r="14" fill="#2C2C2E" stroke="#FFFFFF" stroke-width="1.5"/>
    <text x="110" y="145" fill="#FFFFFF" font-size="12" text-anchor="middle">≡</text>
    <circle cx="140" cy="140" r="14" fill="#2C2C2E"/>
    <text x="140" y="145" fill="#FFFFFF" font-size="12" text-anchor="middle">≡</text>
  </g>

  <text x="55" y="185" fill="#FF9A2E" font-size="11" font-weight="700" text-anchor="middle">정렬</text>
  <text x="98" y="185" fill="#8A8A8E" font-size="11" text-anchor="middle">색상</text>
  <text x="141" y="185" fill="#8A8A8E" font-size="11" text-anchor="middle">크기</text>
  <text x="180" y="185" fill="#8A8A8E" font-size="11" text-anchor="middle">두께</text>

  <rect x="82" y="215" width="26" height="26" rx="7" fill="rgba(255,255,255,0.18)"/>
  <text x="95" y="232" fill="#FFFFFF" font-size="12" text-anchor="middle">가</text>
  <rect x="112" y="215" width="26" height="26" rx="7" fill="#2C2C2E"/>
  <rect x="120" y="223" width="10" height="10" fill="#8A8A8E"/>
</svg>
